<svg xmlns="http://www.w3.org/2000/svg" width="680" height="850" viewBox="0 0 680 850" font-family="'Hanken Grotesk', system-ui, -apple-system, Segoe UI, Roboto, sans-serif" role="img" aria-label="Maquina de estado da conversa do ChatPsi no WhatsApp">
<title>Maquina de estado da conversa do ChatPsi no WhatsApp</title>
<desc>Mensagem recebida (texto, audio, imagem ou documento) e convertida em texto, passa pela identificacao do telefone, que separa em tres casos: nao cadastrado vai para vendas; assinatura inativa vai para renovacao; assinatura ativa abre o menu de tres caminhos (escolher paciente, cadastrar paciente, falar sem paciente). Os dois primeiros levam ao modo paciente, que grava na ficha e aparece na web; o terceiro leva ao modo livre, que nao grava em ficha. No modo paciente o psicologo pode ditar evolucao, ver historico, pedir plano, consultar a ficha e editar o paciente. Quando ha muitos pacientes, a escolha vira lista em texto. Apos 24h sem interacao a conversa volta ao menu. Em paralelo, um motor de reativacao por comportamento provoca quem esta esfriando: dentro da janela de 24h pelo canal gratis, fora da janela por template pago.</desc>

<defs>
<marker id="arrow" viewBox="0 0 10 10" refX="8" refY="5" markerWidth="7" markerHeight="7" orient="auto-start-reverse">
<path d="M2 1L8 5L2 9" fill="none" stroke="#6b6a64" stroke-width="1.5" stroke-linecap="round" stroke-linejoin="round"/>
</marker>
</defs>

<style>
.t  { font-size:14px; font-weight:600; }
.s  { font-size:12px; }
.lg { font-size:12px; fill:#5F5E5A; }
.sec{ font-size:11px; font-weight:700; letter-spacing:.12em; fill:#5F5E5A; }
.arr { stroke:#6b6a64; stroke-width:1.4; fill:none; }
.dash{ stroke:#9a7d3f; stroke-width:1.4; fill:none; stroke-dasharray:5 4; }
</style>

<!-- ============ COLUNA PRINCIPAL: fluxo reativo ============ -->
<text class="sec" x="40" y="22">FLUXO DA CONVERSA (REATIVO &#183; GRATIS NA JANELA DE 24H)</text>

<rect x="210" y="34" width="260" height="52" rx="8" fill="#F1EFE8" stroke="#5F5E5A" stroke-width="0.6"/>
<text class="t" x="340" y="55" text-anchor="middle" fill="#2C2C2A">Mensagem recebida</text>
<text class="s" x="340" y="72" text-anchor="middle" fill="#5F5E5A">texto &#183; audio &#183; imagem &#183; documento</text>

<rect x="230" y="116" width="220" height="52" rx="8" fill="#FBEAF0" stroke="#993556" stroke-width="0.6"/>
<text class="t" x="340" y="137" text-anchor="middle" fill="#4B1528">Converte em texto</text>
<text class="s" x="340" y="154" text-anchor="middle" fill="#993556">audio &#183; imagem &#183; documento</text>
<line x1="340" y1="86" x2="340" y2="114" class="arr" marker-end="url(#arrow)"/>

<rect x="230" y="198" width="220" height="52" rx="8" fill="#EEEDFE" stroke="#534AB7" stroke-width="0.6"/>
<text class="t" x="340" y="219" text-anchor="middle" fill="#26215C">Identifica o telefone</text>
<text class="s" x="340" y="236" text-anchor="middle" fill="#534AB7">resolve o psicologo</text>
<line x1="340" y1="168" x2="340" y2="196" class="arr" marker-end="url(#arrow)"/>

<rect x="40" y="288" width="170" height="52" rx="8" fill="#FAEEDA" stroke="#854F0B" stroke-width="0.6"/>
<text class="t" x="125" y="309" text-anchor="middle" fill="#633806">Nao cadastrado</text>
<text class="s" x="125" y="326" text-anchor="middle" fill="#854F0B">fluxo de vendas</text>

<rect x="255" y="288" width="170" height="52" rx="8" fill="#FAEEDA" stroke="#854F0B" stroke-width="0.6"/>
<text class="t" x="340" y="309" text-anchor="middle" fill="#633806">Assinatura inativa</text>
<text class="s" x="340" y="326" text-anchor="middle" fill="#854F0B">caminho de renovacao</text>

<rect x="470" y="288" width="170" height="52" rx="8" fill="#E1F5EE" stroke="#0F6E56" stroke-width="0.6"/>
<text class="t" x="555" y="309" text-anchor="middle" fill="#04342C">Assinatura ativa</text>
<text class="s" x="555" y="326" text-anchor="middle" fill="#0F6E56">segue para o menu</text>

<path d="M300 250 L125 275 L125 287" class="arr" marker-end="url(#arrow)"/>
<line x1="340" y1="250" x2="340" y2="287" class="arr" marker-end="url(#arrow)"/>
<path d="M380 250 L555 275 L555 287" class="arr" marker-end="url(#arrow)"/>

<rect x="455" y="372" width="185" height="52" rx="8" fill="#E1F5EE" stroke="#0F6E56" stroke-width="0.6"/>
<text class="t" x="547" y="393" text-anchor="middle" fill="#04342C">Menu de 3 caminhos</text>
<text class="s" x="547" y="410" text-anchor="middle" fill="#0F6E56">se nao ha paciente travado</text>
<line x1="555" y1="340" x2="555" y2="371" class="arr" marker-end="url(#arrow)"/>

<rect x="40" y="456" width="180" height="50" rx="8" fill="#E6F1FB" stroke="#185FA5" stroke-width="0.6"/>
<text class="t" x="130" y="476" text-anchor="middle" fill="#042C53">Escolher paciente</text>
<text class="s" x="130" y="493" text-anchor="middle" fill="#185FA5">carrega historico</text>

<rect x="250" y="456" width="180" height="50" rx="8" fill="#E6F1FB" stroke="#185FA5" stroke-width="0.6"/>
<text class="t" x="340" y="476" text-anchor="middle" fill="#042C53">Cadastrar paciente</text>
<text class="s" x="340" y="493" text-anchor="middle" fill="#185FA5">conversa guiada</text>

<rect x="460" y="456" width="180" height="50" rx="8" fill="#E6F1FB" stroke="#185FA5" stroke-width="0.6"/>
<text class="t" x="550" y="476" text-anchor="middle" fill="#042C53">Falar sem paciente</text>
<text class="s" x="550" y="493" text-anchor="middle" fill="#185FA5">modo livre</text>

<path d="M490 424 L130 444 L130 454" class="arr" marker-end="url(#arrow)"/>
<path d="M540 424 L340 444 L340 454" class="arr" marker-end="url(#arrow)"/>
<path d="M560 424 L550 444 L550 454" class="arr" marker-end="url(#arrow)"/>

<rect x="120" y="544" width="210" height="48" rx="8" fill="#E1F5EE" stroke="#0F6E56" stroke-width="0.6"/>
<text class="t" x="225" y="563" text-anchor="middle" fill="#04342C">Modo paciente</text>
<text class="s" x="225" y="581" text-anchor="middle" fill="#0F6E56">grava na ficha &#8594; web</text>

<rect x="400" y="544" width="210" height="48" rx="8" fill="#F1EFE8" stroke="#5F5E5A" stroke-width="0.6"/>
<text class="t" x="505" y="563" text-anchor="middle" fill="#2C2C2A">Modo livre</text>
<text class="s" x="505" y="581" text-anchor="middle" fill="#5F5E5A">nao grava em ficha</text>

<path d="M130 506 L130 524 L225 524 L225 543" class="arr" marker-end="url(#arrow)"/>
<path d="M340 506 L340 524 L225 524 L225 543" class="arr" marker-end="url(#arrow)"/>
<line x1="550" y1="506" x2="505" y2="543" class="arr" marker-end="url(#arrow)"/>

<!-- acoes disponiveis com um paciente travado -->
<rect x="100" y="628" width="300" height="66" rx="8" fill="#E1F5EE" stroke="#0F6E56" stroke-width="0.6"/>
<text class="t" x="250" y="649" text-anchor="middle" fill="#04342C">Acoes do paciente travado</text>
<text class="s" x="250" y="668" text-anchor="middle" fill="#0F6E56">Nova evolucao &#183; Historico &#183; Plano</text>
<text class="s" x="250" y="685" text-anchor="middle" fill="#0F6E56">Consultar ficha &#183; Editar paciente</text>
<line x1="225" y1="592" x2="250" y2="626" class="arr" marker-end="url(#arrow)"/>

<!-- saida de contexto: modos voltam ao menu -->
<path d="M610 568 L660 568 L660 398 L642 398" class="dash" marker-end="url(#arrow)"/>
<text class="s" x="654" y="470" fill="#9a7d3f" text-anchor="middle" transform="rotate(90 654 470)">volta ao menu</text>

<text class="s" x="40" y="716" fill="#9a7d3f">Muitos pacientes: a escolha vira lista em texto e o sistema pede o nome.</text>
<text class="s" x="40" y="734" fill="#9a7d3f">Sair do contexto: diga "menu" / "sair" / "trocar", toque em "Trocar de paciente" &#8212; ou automatico apos 24h sem interacao.</text>

<!-- ============ MOTOR DE REATIVACAO (separado) ============ -->
<line x1="40" y1="752" x2="640" y2="752" stroke="#d9d4c8" stroke-width="1"/>
<text class="sec" x="40" y="774">MOTOR DE REATIVACAO (POR COMPORTAMENTO, NAO POR RELOGIO)</text>

<rect x="40" y="786" width="172" height="48" rx="8" fill="#EEEDFE" stroke="#534AB7" stroke-width="0.6"/>
<text class="t" x="126" y="805" text-anchor="middle" fill="#26215C">Usuario esfriando?</text>
<text class="s" x="126" y="823" text-anchor="middle" fill="#534AB7">queda vs padrao dele</text>

<rect x="250" y="786" width="180" height="48" rx="8" fill="#E1F5EE" stroke="#0F6E56" stroke-width="0.6"/>
<text class="t" x="340" y="805" text-anchor="middle" fill="#04342C">Janela 24h aberta</text>
<text class="s" x="340" y="823" text-anchor="middle" fill="#0F6E56">provocacao gratis</text>

<rect x="468" y="786" width="180" height="48" rx="8" fill="#FAEEDA" stroke="#854F0B" stroke-width="0.6"/>
<text class="t" x="558" y="805" text-anchor="middle" fill="#633806">Janela fechada</text>
<text class="s" x="558" y="823" text-anchor="middle" fill="#854F0B">template pago (parcimonia)</text>

<path d="M212 806 L248 806" class="dash" marker-end="url(#arrow)"/>
<path d="M340 786 L340 772 L150 772 L150 784" class="dash" marker-end="url(#arrow)"/>
<text class="s" x="300" y="768" text-anchor="middle" fill="#9a7d3f">responde &#8594; reabre janela</text>
<path d="M430 810 L466 810" class="dash" marker-end="url(#arrow)"/>
</svg>
